<mxfile host="app.diagrams.net" agent="Mozilla/5.0 (Windows NT 10.0; Win64; x64) AppleWebKit/537.36 (KHTML, like Gecko) Chrome/133.0.0.0 Safari/537.36 OPR/118.0.0.0" version="27.0.6">
  <diagram id="6Sm_0GnPmlF0oke3MPKw" name="diagramme_classe">
    <mxGraphModel dx="1692" dy="356" grid="1" gridSize="10" guides="1" tooltips="1" connect="1" arrows="1" fold="1" page="1" pageScale="1" pageWidth="1169" pageHeight="827" math="0" shadow="0">
      <root>
        <mxCell id="0" />
        <mxCell id="1" parent="0" />
        <mxCell id="fSSnkKhONHnSPeiWQdq9-19" value="Patient" style="swimlane;fontStyle=1;align=center;verticalAlign=top;childLayout=stackLayout;horizontal=1;startSize=26;horizontalStack=0;resizeParent=1;resizeLast=0;collapsible=1;marginBottom=0;rounded=0;shadow=0;strokeWidth=1;" parent="1" vertex="1">
          <mxGeometry x="77" y="295" width="240" height="414" as="geometry">
            <mxRectangle x="550" y="140" width="160" height="26" as="alternateBounds" />
          </mxGeometry>
        </mxCell>
        <mxCell id="fSSnkKhONHnSPeiWQdq9-20" value="id_patient: int" style="text;align=left;verticalAlign=top;spacingLeft=4;spacingRight=4;overflow=hidden;rotatable=0;points=[[0,0.5],[1,0.5]];portConstraint=eastwest;fontStyle=4" parent="fSSnkKhONHnSPeiWQdq9-19" vertex="1">
          <mxGeometry y="26" width="240" height="26" as="geometry" />
        </mxCell>
        <mxCell id="fSSnkKhONHnSPeiWQdq9-21" value="NomComplet: String" style="text;strokeColor=none;fillColor=none;align=left;verticalAlign=top;spacingLeft=4;spacingRight=4;overflow=hidden;rotatable=0;points=[[0,0.5],[1,0.5]];portConstraint=eastwest;whiteSpace=wrap;html=1;" parent="fSSnkKhONHnSPeiWQdq9-19" vertex="1">
          <mxGeometry y="52" width="240" height="26" as="geometry" />
        </mxCell>
        <mxCell id="fSSnkKhONHnSPeiWQdq9-23" value="date_naissance: Date" style="text;strokeColor=none;fillColor=none;align=left;verticalAlign=top;spacingLeft=4;spacingRight=4;overflow=hidden;rotatable=0;points=[[0,0.5],[1,0.5]];portConstraint=eastwest;whiteSpace=wrap;html=1;" parent="fSSnkKhONHnSPeiWQdq9-19" vertex="1">
          <mxGeometry y="78" width="240" height="26" as="geometry" />
        </mxCell>
        <mxCell id="LIPTSqcopBgNWa-e8DmY-1" value="sexe: enum" style="text;strokeColor=none;fillColor=none;align=left;verticalAlign=top;spacingLeft=4;spacingRight=4;overflow=hidden;rotatable=0;points=[[0,0.5],[1,0.5]];portConstraint=eastwest;whiteSpace=wrap;html=1;" parent="fSSnkKhONHnSPeiWQdq9-19" vertex="1">
          <mxGeometry y="104" width="240" height="26" as="geometry" />
        </mxCell>
        <mxCell id="Liz70xh0E30Ar9lDT0JQ-2" value="langue: String" style="text;align=left;verticalAlign=top;spacingLeft=4;spacingRight=4;overflow=hidden;rotatable=0;points=[[0,0.5],[1,0.5]];portConstraint=eastwest;rounded=0;shadow=0;html=0;" parent="fSSnkKhONHnSPeiWQdq9-19" vertex="1">
          <mxGeometry y="130" width="240" height="26" as="geometry" />
        </mxCell>
        <mxCell id="fSSnkKhONHnSPeiWQdq9-28" value="hospitalise: boolean" style="text;align=left;verticalAlign=top;spacingLeft=4;spacingRight=4;overflow=hidden;rotatable=0;points=[[0,0.5],[1,0.5]];portConstraint=eastwest;rounded=0;shadow=0;html=0;" parent="fSSnkKhONHnSPeiWQdq9-19" vertex="1">
          <mxGeometry y="156" width="240" height="26" as="geometry" />
        </mxCell>
        <mxCell id="fSSnkKhONHnSPeiWQdq9-31" value="Personnel" style="swimlane;fontStyle=1;align=center;verticalAlign=top;childLayout=stackLayout;horizontal=1;startSize=26;horizontalStack=0;resizeParent=1;resizeLast=0;collapsible=1;marginBottom=0;rounded=0;shadow=0;strokeWidth=1;" parent="1" vertex="1">
          <mxGeometry x="997" y="599" width="194.29" height="331" as="geometry">
            <mxRectangle x="550" y="140" width="160" height="26" as="alternateBounds" />
          </mxGeometry>
        </mxCell>
        <mxCell id="fSSnkKhONHnSPeiWQdq9-40" value="id_personnel: int" style="text;align=left;verticalAlign=top;spacingLeft=4;spacingRight=4;overflow=hidden;rotatable=0;points=[[0,0.5],[1,0.5]];portConstraint=eastwest;rounded=0;shadow=0;html=0;fontStyle=4" parent="fSSnkKhONHnSPeiWQdq9-31" vertex="1">
          <mxGeometry y="26" width="194.29" height="18" as="geometry" />
        </mxCell>
        <mxCell id="WtJijDYXJvBTnk_VOGE1-14" value="nom: String" style="text;align=left;verticalAlign=top;spacingLeft=4;spacingRight=4;overflow=hidden;rotatable=0;points=[[0,0.5],[1,0.5]];portConstraint=eastwest;rounded=0;shadow=0;html=0;" parent="fSSnkKhONHnSPeiWQdq9-31" vertex="1">
          <mxGeometry y="44" width="194.29" height="20" as="geometry" />
        </mxCell>
        <mxCell id="WtJijDYXJvBTnk_VOGE1-13" value="prenom: String" style="text;align=left;verticalAlign=top;spacingLeft=4;spacingRight=4;overflow=hidden;rotatable=0;points=[[0,0.5],[1,0.5]];portConstraint=eastwest;rounded=0;shadow=0;html=0;" parent="fSSnkKhONHnSPeiWQdq9-31" vertex="1">
          <mxGeometry y="64" width="194.29" height="26" as="geometry" />
        </mxCell>
        <mxCell id="WtJijDYXJvBTnk_VOGE1-12" value="date_embauche: Date" style="text;align=left;verticalAlign=top;spacingLeft=4;spacingRight=4;overflow=hidden;rotatable=0;points=[[0,0.5],[1,0.5]];portConstraint=eastwest;rounded=0;shadow=0;html=0;" parent="fSSnkKhONHnSPeiWQdq9-31" vertex="1">
          <mxGeometry y="90" width="194.29" height="26" as="geometry" />
        </mxCell>
        <mxCell id="WtJijDYXJvBTnk_VOGE1-11" value="salaire: float" style="text;align=left;verticalAlign=top;spacingLeft=4;spacingRight=4;overflow=hidden;rotatable=0;points=[[0,0.5],[1,0.5]];portConstraint=eastwest;rounded=0;shadow=0;html=0;" parent="fSSnkKhONHnSPeiWQdq9-31" vertex="1">
          <mxGeometry y="116" width="194.29" height="26" as="geometry" />
        </mxCell>
        <mxCell id="WtJijDYXJvBTnk_VOGE1-10" value="affectation_specialite: String" style="text;align=left;verticalAlign=top;spacingLeft=4;spacingRight=4;overflow=hidden;rotatable=0;points=[[0,0.5],[1,0.5]];portConstraint=eastwest;rounded=0;shadow=0;html=0;" parent="fSSnkKhONHnSPeiWQdq9-31" vertex="1">
          <mxGeometry y="142" width="194.29" height="26" as="geometry" />
        </mxCell>
        <mxCell id="Liz70xh0E30Ar9lDT0JQ-13" value="langue: String" style="text;align=left;verticalAlign=top;spacingLeft=4;spacingRight=4;overflow=hidden;rotatable=0;points=[[0,0.5],[1,0.5]];portConstraint=eastwest;rounded=0;shadow=0;html=0;" parent="fSSnkKhONHnSPeiWQdq9-31" vertex="1">
          <mxGeometry y="168" width="194.29" height="30" as="geometry" />
        </mxCell>
        <mxCell id="Liz70xh0E30Ar9lDT0JQ-14" value="responsable: String" style="text;align=left;verticalAlign=top;spacingLeft=4;spacingRight=4;overflow=hidden;rotatable=0;points=[[0,0.5],[1,0.5]];portConstraint=eastwest;rounded=0;shadow=0;html=0;" parent="fSSnkKhONHnSPeiWQdq9-31" vertex="1">
          <mxGeometry y="198" width="194.29" height="30" as="geometry" />
        </mxCell>
        <mxCell id="4HMBv36Nge665kwI8IaE-1" value="Médecin" style="swimlane;fontStyle=1;align=center;verticalAlign=top;childLayout=stackLayout;horizontal=1;startSize=26;horizontalStack=0;resizeParent=1;resizeLast=0;collapsible=1;marginBottom=0;rounded=0;shadow=0;strokeWidth=1;" parent="1" vertex="1">
          <mxGeometry x="126.85" y="1014" width="194.29" height="100" as="geometry">
            <mxRectangle x="550" y="140" width="160" height="26" as="alternateBounds" />
          </mxGeometry>
        </mxCell>
        <mxCell id="4HMBv36Nge665kwI8IaE-4" value="num_licence: String" style="text;align=left;verticalAlign=top;spacingLeft=4;spacingRight=4;overflow=hidden;rotatable=0;points=[[0,0.5],[1,0.5]];portConstraint=eastwest;rounded=0;shadow=0;html=0;" parent="4HMBv36Nge665kwI8IaE-1" vertex="1">
          <mxGeometry y="26" width="194.29" height="26" as="geometry" />
        </mxCell>
        <mxCell id="VJPBG330XnQBzx9i4Lb_-1" value="" style="html=1;verticalAlign=bottom;endArrow=block;curved=0;rounded=0;exitX=0.5;exitY=0;exitDx=0;exitDy=0;endFill=0;strokeWidth=1;jumpSize=10;fontSize=10;endSize=14;entryX=0.5;entryY=1;entryDx=0;entryDy=0;" parent="1" source="4HMBv36Nge665kwI8IaE-1" target="fSSnkKhONHnSPeiWQdq9-31" edge="1">
          <mxGeometry width="80" relative="1" as="geometry">
            <mxPoint x="627" y="1084" as="sourcePoint" />
            <mxPoint x="1107" y="939" as="targetPoint" />
          </mxGeometry>
        </mxCell>
        <mxCell id="BcY6Sn8Lkc4OsGFnqYsF-2" value="Infirmier" style="swimlane;fontStyle=1;align=center;verticalAlign=top;childLayout=stackLayout;horizontal=1;startSize=26;horizontalStack=0;resizeParent=1;resizeLast=0;collapsible=1;marginBottom=0;rounded=0;shadow=0;strokeWidth=1;" parent="1" vertex="1">
          <mxGeometry x="733.85" y="804" width="194.29" height="90" as="geometry">
            <mxRectangle x="550" y="140" width="160" height="26" as="alternateBounds" />
          </mxGeometry>
        </mxCell>
        <mxCell id="BcY6Sn8Lkc4OsGFnqYsF-4" value="niveau_certification: String" style="text;align=left;verticalAlign=top;spacingLeft=4;spacingRight=4;overflow=hidden;rotatable=0;points=[[0,0.5],[1,0.5]];portConstraint=eastwest;rounded=0;shadow=0;html=0;" parent="BcY6Sn8Lkc4OsGFnqYsF-2" vertex="1">
          <mxGeometry y="26" width="194.29" height="20" as="geometry" />
        </mxCell>
        <mxCell id="BcY6Sn8Lkc4OsGFnqYsF-7" value="" style="html=1;verticalAlign=bottom;endArrow=block;curved=0;rounded=0;exitX=0.5;exitY=1;exitDx=0;exitDy=0;endFill=0;strokeWidth=1;jumpSize=10;fontSize=10;endSize=14;entryX=0;entryY=1;entryDx=0;entryDy=0;" parent="1" source="BcY6Sn8Lkc4OsGFnqYsF-2" target="fSSnkKhONHnSPeiWQdq9-31" edge="1">
          <mxGeometry width="80" relative="1" as="geometry">
            <mxPoint x="754" y="1064" as="sourcePoint" />
            <mxPoint x="927" y="939" as="targetPoint" />
          </mxGeometry>
        </mxCell>
        <mxCell id="eylT0aVJR5v2lH_k7m9G-1" value="Intendance" style="swimlane;fontStyle=1;align=center;verticalAlign=top;childLayout=stackLayout;horizontal=1;startSize=26;horizontalStack=0;resizeParent=1;resizeLast=0;collapsible=1;marginBottom=0;rounded=0;shadow=0;strokeWidth=1;" parent="1" vertex="1">
          <mxGeometry x="970" y="1025" width="194.29" height="110" as="geometry">
            <mxRectangle x="550" y="140" width="160" height="26" as="alternateBounds" />
          </mxGeometry>
        </mxCell>
        <mxCell id="eylT0aVJR5v2lH_k7m9G-3" value="zone_attribuee: String" style="text;align=left;verticalAlign=top;spacingLeft=4;spacingRight=4;overflow=hidden;rotatable=0;points=[[0,0.5],[1,0.5]];portConstraint=eastwest;rounded=0;shadow=0;html=0;" parent="eylT0aVJR5v2lH_k7m9G-1" vertex="1">
          <mxGeometry y="26" width="194.29" height="20" as="geometry" />
        </mxCell>
        <mxCell id="OWp6cQi3-IxgY9qEHowN-2" value="fonction: String" style="text;align=left;verticalAlign=top;spacingLeft=4;spacingRight=4;overflow=hidden;rotatable=0;points=[[0,0.5],[1,0.5]];portConstraint=eastwest;rounded=0;shadow=0;html=0;" parent="eylT0aVJR5v2lH_k7m9G-1" vertex="1">
          <mxGeometry y="46" width="194.29" height="20" as="geometry" />
        </mxCell>
        <mxCell id="Liz70xh0E30Ar9lDT0JQ-4" value="Profil médical" style="swimlane;fontStyle=1;align=center;verticalAlign=top;childLayout=stackLayout;horizontal=1;startSize=26;horizontalStack=0;resizeParent=1;resizeLast=0;collapsible=1;marginBottom=0;rounded=0;shadow=0;strokeWidth=1;" parent="1" vertex="1">
          <mxGeometry x="-317.29" y="266" width="194.29" height="130" as="geometry">
            <mxRectangle x="550" y="140" width="160" height="26" as="alternateBounds" />
          </mxGeometry>
        </mxCell>
        <mxCell id="Liz70xh0E30Ar9lDT0JQ-5" value="id_profil_médical: int" style="text;align=left;verticalAlign=top;spacingLeft=4;spacingRight=4;overflow=hidden;rotatable=0;points=[[0,0.5],[1,0.5]];portConstraint=eastwest;rounded=0;shadow=0;html=0;fontStyle=4;fontFamily=Helvetica;fontSize=12;fontColor=default;" parent="Liz70xh0E30Ar9lDT0JQ-4" vertex="1">
          <mxGeometry y="26" width="194.29" height="24" as="geometry" />
        </mxCell>
        <mxCell id="Liz70xh0E30Ar9lDT0JQ-15" value="Chambre" style="swimlane;fontStyle=1;align=center;verticalAlign=top;childLayout=stackLayout;horizontal=1;startSize=26;horizontalStack=0;resizeParent=1;resizeLast=0;collapsible=1;marginBottom=0;rounded=0;shadow=0;strokeWidth=1;" parent="1" vertex="1">
          <mxGeometry x="484" y="379" width="194.29" height="101" as="geometry">
            <mxRectangle x="550" y="140" width="160" height="26" as="alternateBounds" />
          </mxGeometry>
        </mxCell>
        <mxCell id="Liz70xh0E30Ar9lDT0JQ-19" value="id_patient: int" style="text;align=left;verticalAlign=top;spacingLeft=4;spacingRight=4;overflow=hidden;rotatable=0;points=[[0,0.5],[1,0.5]];portConstraint=eastwest;rounded=0;shadow=0;html=0;" parent="Liz70xh0E30Ar9lDT0JQ-15" vertex="1">
          <mxGeometry y="26" width="194.29" height="26" as="geometry" />
        </mxCell>
        <mxCell id="Liz70xh0E30Ar9lDT0JQ-23" value="Service" style="swimlane;fontStyle=1;align=center;verticalAlign=top;childLayout=stackLayout;horizontal=1;startSize=26;horizontalStack=0;resizeParent=1;resizeLast=0;collapsible=1;marginBottom=0;rounded=0;shadow=0;strokeWidth=1;" parent="1" vertex="1">
          <mxGeometry x="530.05" y="41" width="194.29" height="162" as="geometry">
            <mxRectangle x="550" y="140" width="160" height="26" as="alternateBounds" />
          </mxGeometry>
        </mxCell>
        <mxCell id="Liz70xh0E30Ar9lDT0JQ-24" value="id_service: int" style="text;align=left;verticalAlign=top;spacingLeft=4;spacingRight=4;overflow=hidden;rotatable=0;points=[[0,0.5],[1,0.5]];portConstraint=eastwest;rounded=0;shadow=0;html=0;fontStyle=4" parent="Liz70xh0E30Ar9lDT0JQ-23" vertex="1">
          <mxGeometry y="26" width="194.29" height="18" as="geometry" />
        </mxCell>
        <mxCell id="Liz70xh0E30Ar9lDT0JQ-25" value="nom: String" style="text;align=left;verticalAlign=top;spacingLeft=4;spacingRight=4;overflow=hidden;rotatable=0;points=[[0,0.5],[1,0.5]];portConstraint=eastwest;rounded=0;shadow=0;html=0;" parent="Liz70xh0E30Ar9lDT0JQ-23" vertex="1">
          <mxGeometry y="44" width="194.29" height="20" as="geometry" />
        </mxCell>
        <mxCell id="Liz70xh0E30Ar9lDT0JQ-31" value="Équipement" style="swimlane;fontStyle=1;align=center;verticalAlign=top;childLayout=stackLayout;horizontal=1;startSize=26;horizontalStack=0;resizeParent=1;resizeLast=0;collapsible=1;marginBottom=0;rounded=0;shadow=0;strokeWidth=1;" parent="1" vertex="1">
          <mxGeometry x="931.1300000000001" y="13" width="194.29" height="182" as="geometry">
            <mxRectangle x="550" y="140" width="160" height="26" as="alternateBounds" />
          </mxGeometry>
        </mxCell>
        <mxCell id="Liz70xh0E30Ar9lDT0JQ-32" value="id_équipement: int" style="text;align=left;verticalAlign=top;spacingLeft=4;spacingRight=4;overflow=hidden;rotatable=0;points=[[0,0.5],[1,0.5]];portConstraint=eastwest;rounded=0;shadow=0;html=0;fontStyle=4" parent="Liz70xh0E30Ar9lDT0JQ-31" vertex="1">
          <mxGeometry y="26" width="194.29" height="18" as="geometry" />
        </mxCell>
        <mxCell id="Liz70xh0E30Ar9lDT0JQ-33" value="nom: String" style="text;align=left;verticalAlign=top;spacingLeft=4;spacingRight=4;overflow=hidden;rotatable=0;points=[[0,0.5],[1,0.5]];portConstraint=eastwest;rounded=0;shadow=0;html=0;" parent="Liz70xh0E30Ar9lDT0JQ-31" vertex="1">
          <mxGeometry y="44" width="194.29" height="20" as="geometry" />
        </mxCell>
        <mxCell id="Liz70xh0E30Ar9lDT0JQ-34" value="type: String" style="text;align=left;verticalAlign=top;spacingLeft=4;spacingRight=4;overflow=hidden;rotatable=0;points=[[0,0.5],[1,0.5]];portConstraint=eastwest;rounded=0;shadow=0;html=0;" parent="Liz70xh0E30Ar9lDT0JQ-31" vertex="1">
          <mxGeometry y="64" width="194.29" height="26" as="geometry" />
        </mxCell>
        <mxCell id="Liz70xh0E30Ar9lDT0JQ-47" value="Hospitalisation" style="swimlane;fontStyle=1;align=center;verticalAlign=top;childLayout=stackLayout;horizontal=1;startSize=26;horizontalStack=0;resizeParent=1;resizeLast=0;collapsible=1;marginBottom=0;rounded=0;shadow=0;strokeWidth=1;" parent="1" vertex="1">
          <mxGeometry x="342" y="700" width="194.29" height="220" as="geometry">
            <mxRectangle x="550" y="140" width="160" height="26" as="alternateBounds" />
          </mxGeometry>
        </mxCell>
        <mxCell id="Liz70xh0E30Ar9lDT0JQ-48" value="id_hospitalisation: int" style="text;align=left;verticalAlign=top;spacingLeft=4;spacingRight=4;overflow=hidden;rotatable=0;points=[[0,0.5],[1,0.5]];portConstraint=eastwest;rounded=0;shadow=0;html=0;fontStyle=4" parent="Liz70xh0E30Ar9lDT0JQ-47" vertex="1">
          <mxGeometry y="26" width="194.29" height="18" as="geometry" />
        </mxCell>
        <mxCell id="Liz70xh0E30Ar9lDT0JQ-51" value="motif: TEXT/CLOB" style="text;align=left;verticalAlign=top;spacingLeft=4;spacingRight=4;overflow=hidden;rotatable=0;points=[[0,0.5],[1,0.5]];portConstraint=eastwest;rounded=0;shadow=0;html=0;" parent="Liz70xh0E30Ar9lDT0JQ-47" vertex="1">
          <mxGeometry y="44" width="194.29" height="26" as="geometry" />
        </mxCell>
        <mxCell id="o44cOPp-4JualUAl15hT-55" style="edgeStyle=orthogonalEdgeStyle;rounded=0;orthogonalLoop=1;jettySize=auto;html=1;exitX=1;exitY=0.5;exitDx=0;exitDy=0;endArrow=diamond;endFill=1;endSize=17;" parent="1" source="Liz70xh0E30Ar9lDT0JQ-55" edge="1">
          <mxGeometry relative="1" as="geometry">
            <Array as="points">
              <mxPoint x="-778" y="742" />
            </Array>
            <mxPoint x="-633" y="730" as="targetPoint" />
          </mxGeometry>
        </mxCell>
        <mxCell id="o44cOPp-4JualUAl15hT-57" value="résulte de" style="edgeLabel;html=1;align=center;verticalAlign=middle;resizable=0;points=[];" parent="o44cOPp-4JualUAl15hT-55" vertex="1" connectable="0">
          <mxGeometry x="0.7997" y="2" relative="1" as="geometry">
            <mxPoint x="-26" y="19" as="offset" />
          </mxGeometry>
        </mxCell>
        <mxCell id="o44cOPp-4JualUAl15hT-59" value="0..1" style="edgeLabel;html=1;align=center;verticalAlign=middle;resizable=0;points=[];" parent="o44cOPp-4JualUAl15hT-55" vertex="1" connectable="0">
          <mxGeometry x="-0.7061" y="3" relative="1" as="geometry">
            <mxPoint x="-2" y="-6" as="offset" />
          </mxGeometry>
        </mxCell>
        <mxCell id="Liz70xh0E30Ar9lDT0JQ-55" value="PRESCRIPTION" style="swimlane;fontStyle=1;align=center;verticalAlign=top;childLayout=stackLayout;horizontal=1;startSize=26;horizontalStack=0;resizeParent=1;resizeLast=0;collapsible=1;marginBottom=0;rounded=0;shadow=0;strokeWidth=1;" parent="1" vertex="1">
          <mxGeometry x="-972" y="629" width="194.29" height="210" as="geometry">
            <mxRectangle x="550" y="140" width="160" height="26" as="alternateBounds" />
          </mxGeometry>
        </mxCell>
        <mxCell id="Liz70xh0E30Ar9lDT0JQ-56" value="id_prescription: int" style="text;align=left;verticalAlign=top;spacingLeft=4;spacingRight=4;overflow=hidden;rotatable=0;points=[[0,0.5],[1,0.5]];portConstraint=eastwest;rounded=0;shadow=0;html=0;fontStyle=4" parent="Liz70xh0E30Ar9lDT0JQ-55" vertex="1">
          <mxGeometry y="26" width="194.29" height="18" as="geometry" />
        </mxCell>
        <mxCell id="Liz70xh0E30Ar9lDT0JQ-60" value="description: TEXT/CLOB" style="text;align=left;verticalAlign=top;spacingLeft=4;spacingRight=4;overflow=hidden;rotatable=0;points=[[0,0.5],[1,0.5]];portConstraint=eastwest;rounded=0;shadow=0;html=0;" parent="Liz70xh0E30Ar9lDT0JQ-55" vertex="1">
          <mxGeometry y="44" width="194.29" height="26" as="geometry" />
        </mxCell>
        <mxCell id="Liz70xh0E30Ar9lDT0JQ-63" value="Consultation" style="swimlane;fontStyle=1;align=center;verticalAlign=top;childLayout=stackLayout;horizontal=1;startSize=26;horizontalStack=0;resizeParent=1;resizeLast=0;collapsible=1;marginBottom=0;rounded=0;shadow=0;strokeWidth=1;" parent="1" vertex="1">
          <mxGeometry x="-633" y="607" width="194.29" height="230" as="geometry">
            <mxRectangle x="550" y="140" width="160" height="26" as="alternateBounds" />
          </mxGeometry>
        </mxCell>
        <mxCell id="Liz70xh0E30Ar9lDT0JQ-64" value="id_consultation: int" style="text;align=left;verticalAlign=top;spacingLeft=4;spacingRight=4;overflow=hidden;rotatable=0;points=[[0,0.5],[1,0.5]];portConstraint=eastwest;rounded=0;shadow=0;html=0;fontStyle=4" parent="Liz70xh0E30Ar9lDT0JQ-63" vertex="1">
          <mxGeometry y="26" width="194.29" height="18" as="geometry" />
        </mxCell>
        <mxCell id="Liz70xh0E30Ar9lDT0JQ-67" value="date: DateTime" style="text;align=left;verticalAlign=top;spacingLeft=4;spacingRight=4;overflow=hidden;rotatable=0;points=[[0,0.5],[1,0.5]];portConstraint=eastwest;rounded=0;shadow=0;html=0;" parent="Liz70xh0E30Ar9lDT0JQ-63" vertex="1">
          <mxGeometry y="44" width="194.29" height="26" as="geometry" />
        </mxCell>
        <mxCell id="Liz70xh0E30Ar9lDT0JQ-97" value="motif: TEXT/CLOB" style="text;align=left;verticalAlign=top;spacingLeft=4;spacingRight=4;overflow=hidden;rotatable=0;points=[[0,0.5],[1,0.5]];portConstraint=eastwest;rounded=0;shadow=0;html=0;" parent="Liz70xh0E30Ar9lDT0JQ-63" vertex="1">
          <mxGeometry y="70" width="194.29" height="26" as="geometry" />
        </mxCell>
        <mxCell id="o44cOPp-4JualUAl15hT-4" style="edgeStyle=orthogonalEdgeStyle;rounded=0;orthogonalLoop=1;jettySize=auto;html=1;exitX=0.5;exitY=1;exitDx=0;exitDy=0;endArrow=none;startFill=0;entryX=1;entryY=0.5;entryDx=0;entryDy=0;" parent="Liz70xh0E30Ar9lDT0JQ-63" source="Liz70xh0E30Ar9lDT0JQ-63" edge="1">
          <mxGeometry relative="1" as="geometry">
            <mxPoint x="194.28999999999996" y="83" as="targetPoint" />
            <Array as="points">
              <mxPoint x="170" y="230" />
              <mxPoint x="170" y="294" />
              <mxPoint x="340" y="294" />
              <mxPoint x="340" y="135" />
            </Array>
          </mxGeometry>
        </mxCell>
        <mxCell id="o44cOPp-4JualUAl15hT-11" value="Consultation initiale" style="edgeLabel;html=1;align=center;verticalAlign=middle;resizable=0;points=[];" parent="o44cOPp-4JualUAl15hT-4" vertex="1" connectable="0">
          <mxGeometry x="0.9437" y="-1" relative="1" as="geometry">
            <mxPoint x="52" y="18" as="offset" />
          </mxGeometry>
        </mxCell>
        <mxCell id="o44cOPp-4JualUAl15hT-12" value="Consultation dérivée" style="edgeLabel;html=1;align=center;verticalAlign=middle;resizable=0;points=[];" parent="o44cOPp-4JualUAl15hT-4" vertex="1" connectable="0">
          <mxGeometry x="-0.9741" y="-1" relative="1" as="geometry">
            <mxPoint x="1" y="10" as="offset" />
          </mxGeometry>
        </mxCell>
        <mxCell id="Liz70xh0E30Ar9lDT0JQ-71" value="Urgence" style="swimlane;fontStyle=1;align=center;verticalAlign=top;childLayout=stackLayout;horizontal=1;startSize=26;horizontalStack=0;resizeParent=1;resizeLast=0;collapsible=1;marginBottom=0;rounded=0;shadow=0;strokeWidth=1;" parent="1" vertex="1">
          <mxGeometry x="-243" y="795" width="194.29" height="160" as="geometry">
            <mxRectangle x="550" y="140" width="160" height="26" as="alternateBounds" />
          </mxGeometry>
        </mxCell>
        <mxCell id="Liz70xh0E30Ar9lDT0JQ-72" value="id_urgence: int" style="text;align=left;verticalAlign=top;spacingLeft=4;spacingRight=4;overflow=hidden;rotatable=0;points=[[0,0.5],[1,0.5]];portConstraint=eastwest;rounded=0;shadow=0;html=0;fontStyle=4" parent="Liz70xh0E30Ar9lDT0JQ-71" vertex="1">
          <mxGeometry y="26" width="194.29" height="18" as="geometry" />
        </mxCell>
        <mxCell id="Liz70xh0E30Ar9lDT0JQ-74" value="date: DateTime" style="text;align=left;verticalAlign=top;spacingLeft=4;spacingRight=4;overflow=hidden;rotatable=0;points=[[0,0.5],[1,0.5]];portConstraint=eastwest;rounded=0;shadow=0;html=0;" parent="Liz70xh0E30Ar9lDT0JQ-71" vertex="1">
          <mxGeometry y="44" width="194.29" height="26" as="geometry" />
        </mxCell>
        <mxCell id="Liz70xh0E30Ar9lDT0JQ-75" value="description: TEXT/CLOB" style="text;align=left;verticalAlign=top;spacingLeft=4;spacingRight=4;overflow=hidden;rotatable=0;points=[[0,0.5],[1,0.5]];portConstraint=eastwest;rounded=0;shadow=0;html=0;" parent="Liz70xh0E30Ar9lDT0JQ-71" vertex="1">
          <mxGeometry y="70" width="194.29" height="26" as="geometry" />
        </mxCell>
        <mxCell id="Liz70xh0E30Ar9lDT0JQ-79" value="Facture" style="swimlane;fontStyle=1;align=center;verticalAlign=top;childLayout=stackLayout;horizontal=1;startSize=26;horizontalStack=0;resizeParent=1;resizeLast=0;collapsible=1;marginBottom=0;rounded=0;shadow=0;strokeWidth=1;" parent="1" vertex="1">
          <mxGeometry x="-210" y="17.5" width="194.29" height="135.5" as="geometry">
            <mxRectangle x="550" y="140" width="160" height="26" as="alternateBounds" />
          </mxGeometry>
        </mxCell>
        <mxCell id="3pAJSO3fIvJ6FdaWoJwJ-7" value="id_facture: int" style="text;align=left;verticalAlign=top;spacingLeft=4;spacingRight=4;overflow=hidden;rotatable=0;points=[[0,0.5],[1,0.5]];portConstraint=eastwest;rounded=0;shadow=0;html=0;fontStyle=4" parent="Liz70xh0E30Ar9lDT0JQ-79" vertex="1">
          <mxGeometry y="26" width="194.29" height="18" as="geometry" />
        </mxCell>
        <mxCell id="Liz70xh0E30Ar9lDT0JQ-80" value="id_facture: int" style="text;align=left;verticalAlign=top;spacingLeft=4;spacingRight=4;overflow=hidden;rotatable=0;points=[[0,0.5],[1,0.5]];portConstraint=eastwest;rounded=0;shadow=0;html=0;fontStyle=4" parent="Liz70xh0E30Ar9lDT0JQ-79" vertex="1">
          <mxGeometry y="44" width="194.29" height="18" as="geometry" />
        </mxCell>
        <mxCell id="Liz70xh0E30Ar9lDT0JQ-82" value="montant: float" style="text;align=left;verticalAlign=top;spacingLeft=4;spacingRight=4;overflow=hidden;rotatable=0;points=[[0,0.5],[1,0.5]];portConstraint=eastwest;rounded=0;shadow=0;html=0;" parent="Liz70xh0E30Ar9lDT0JQ-79" vertex="1">
          <mxGeometry y="62" width="194.29" height="26" as="geometry" />
        </mxCell>
        <mxCell id="Liz70xh0E30Ar9lDT0JQ-83" value="date: DateTime" style="text;align=left;verticalAlign=top;spacingLeft=4;spacingRight=4;overflow=hidden;rotatable=0;points=[[0,0.5],[1,0.5]];portConstraint=eastwest;rounded=0;shadow=0;html=0;" parent="Liz70xh0E30Ar9lDT0JQ-79" vertex="1">
          <mxGeometry y="88" width="194.29" height="26" as="geometry" />
        </mxCell>
        <mxCell id="Liz70xh0E30Ar9lDT0JQ-87" value="Médicament" style="swimlane;fontStyle=1;align=center;verticalAlign=top;childLayout=stackLayout;horizontal=1;startSize=26;horizontalStack=0;resizeParent=1;resizeLast=0;collapsible=1;marginBottom=0;rounded=0;shadow=0;strokeWidth=1;" parent="1" vertex="1">
          <mxGeometry x="-1043" y="310" width="194.29" height="125" as="geometry">
            <mxRectangle x="550" y="140" width="160" height="26" as="alternateBounds" />
          </mxGeometry>
        </mxCell>
        <mxCell id="Liz70xh0E30Ar9lDT0JQ-88" value="id_médicament: int" style="text;align=left;verticalAlign=top;spacingLeft=4;spacingRight=4;overflow=hidden;rotatable=0;points=[[0,0.5],[1,0.5]];portConstraint=eastwest;rounded=0;shadow=0;html=0;fontStyle=4" parent="Liz70xh0E30Ar9lDT0JQ-87" vertex="1">
          <mxGeometry y="26" width="194.29" height="18" as="geometry" />
        </mxCell>
        <mxCell id="Liz70xh0E30Ar9lDT0JQ-89" value="nom: String" style="text;align=left;verticalAlign=top;spacingLeft=4;spacingRight=4;overflow=hidden;rotatable=0;points=[[0,0.5],[1,0.5]];portConstraint=eastwest;rounded=0;shadow=0;html=0;" parent="Liz70xh0E30Ar9lDT0JQ-87" vertex="1">
          <mxGeometry y="44" width="194.29" height="26" as="geometry" />
        </mxCell>
        <mxCell id="Liz70xh0E30Ar9lDT0JQ-90" value="description: TEXT/CLOB" style="text;align=left;verticalAlign=top;spacingLeft=4;spacingRight=4;overflow=hidden;rotatable=0;points=[[0,0.5],[1,0.5]];portConstraint=eastwest;rounded=0;shadow=0;html=0;" parent="Liz70xh0E30Ar9lDT0JQ-87" vertex="1">
          <mxGeometry y="70" width="194.29" height="26" as="geometry" />
        </mxCell>
        <mxCell id="7mnhMrXWLqBICXK2y1j6-3" value="" style="html=1;verticalAlign=bottom;endArrow=block;curved=0;rounded=0;exitX=0.5;exitY=0;exitDx=0;exitDy=0;endFill=0;strokeWidth=1;jumpSize=10;fontSize=10;endSize=14;entryX=0.75;entryY=1;entryDx=0;entryDy=0;" parent="1" source="eylT0aVJR5v2lH_k7m9G-1" target="fSSnkKhONHnSPeiWQdq9-31" edge="1">
          <mxGeometry width="80" relative="1" as="geometry">
            <mxPoint x="1124" y="1089" as="sourcePoint" />
            <mxPoint x="1147" y="969" as="targetPoint" />
          </mxGeometry>
        </mxCell>
        <mxCell id="7mnhMrXWLqBICXK2y1j6-6" value="" style="endArrow=none;html=1;rounded=0;exitX=1;exitY=0.5;exitDx=0;exitDy=0;" parent="1" edge="1">
          <mxGeometry width="50" height="50" relative="1" as="geometry">
            <mxPoint x="-123" y="349" as="sourcePoint" />
            <mxPoint x="77" y="347.75" as="targetPoint" />
          </mxGeometry>
        </mxCell>
        <mxCell id="7mnhMrXWLqBICXK2y1j6-7" value="1..1" style="edgeLabel;html=1;align=center;verticalAlign=middle;resizable=0;points=[];" parent="7mnhMrXWLqBICXK2y1j6-6" vertex="1" connectable="0">
          <mxGeometry x="0.8859" y="2" relative="1" as="geometry">
            <mxPoint x="-4" y="-8" as="offset" />
          </mxGeometry>
        </mxCell>
        <mxCell id="7mnhMrXWLqBICXK2y1j6-8" value="0..n" style="edgeLabel;html=1;align=center;verticalAlign=middle;resizable=0;points=[];" parent="1" vertex="1" connectable="0">
          <mxGeometry x="20.004389555530125" y="349.99637750591216" as="geometry">
            <mxPoint x="-128" y="-12" as="offset" />
          </mxGeometry>
        </mxCell>
        <mxCell id="7mnhMrXWLqBICXK2y1j6-10" value="est associé à" style="edgeLabel;html=1;align=center;verticalAlign=middle;resizable=0;points=[];" parent="1" vertex="1" connectable="0">
          <mxGeometry x="52.004389555529684" y="359.99637750591216" as="geometry">
            <mxPoint x="-11" y="-3" as="offset" />
          </mxGeometry>
        </mxCell>
        <mxCell id="7mnhMrXWLqBICXK2y1j6-11" value="a pour patient" style="edgeLabel;html=1;align=center;verticalAlign=middle;resizable=0;points=[];" parent="1" vertex="1" connectable="0">
          <mxGeometry x="-86.99561044447032" y="358.99637750591216" as="geometry" />
        </mxCell>
        <mxCell id="LIPTSqcopBgNWa-e8DmY-2" value="" style="endArrow=none;html=1;rounded=0;" parent="1" edge="1">
          <mxGeometry width="50" height="50" relative="1" as="geometry">
            <mxPoint x="537" y="750" as="sourcePoint" />
            <mxPoint x="484" y="420" as="targetPoint" />
            <Array as="points">
              <mxPoint x="587" y="750" />
              <mxPoint x="637" y="750" />
              <mxPoint x="637" y="590" />
              <mxPoint x="427" y="590" />
              <mxPoint x="427" y="420" />
            </Array>
          </mxGeometry>
        </mxCell>
        <mxCell id="LIPTSqcopBgNWa-e8DmY-3" value="1..n" style="edgeLabel;html=1;align=center;verticalAlign=middle;resizable=0;points=[];" parent="LIPTSqcopBgNWa-e8DmY-2" vertex="1" connectable="0">
          <mxGeometry x="0.8859" y="2" relative="1" as="geometry">
            <mxPoint x="23" y="-13" as="offset" />
          </mxGeometry>
        </mxCell>
        <mxCell id="LIPTSqcopBgNWa-e8DmY-4" value="0..n" style="edgeLabel;html=1;align=center;verticalAlign=middle;resizable=0;points=[];" parent="1" vertex="1" connectable="0">
          <mxGeometry x="677.2943895555301" y="751.9963775059122" as="geometry">
            <mxPoint x="-128" y="-12" as="offset" />
          </mxGeometry>
        </mxCell>
        <mxCell id="LIPTSqcopBgNWa-e8DmY-5" value="se déroule" style="edgeLabel;html=1;align=center;verticalAlign=middle;resizable=0;points=[];" parent="1" vertex="1" connectable="0">
          <mxGeometry x="579.1443895555296" y="757.9963775059122" as="geometry">
            <mxPoint x="-15" y="-1" as="offset" />
          </mxGeometry>
        </mxCell>
        <mxCell id="LIPTSqcopBgNWa-e8DmY-6" value="accueille" style="edgeLabel;html=1;align=center;verticalAlign=middle;resizable=0;points=[];" parent="1" vertex="1" connectable="0">
          <mxGeometry x="457.00438955552966" y="430.49637750591216" as="geometry">
            <mxPoint x="-26" y="4" as="offset" />
          </mxGeometry>
        </mxCell>
        <mxCell id="LIPTSqcopBgNWa-e8DmY-9" value="1..n" style="edgeLabel;html=1;align=center;verticalAlign=middle;resizable=0;points=[];" parent="1" vertex="1" connectable="0">
          <mxGeometry x="475.00438955553" y="120.99637750591216" as="geometry">
            <mxPoint x="-128" y="-12" as="offset" />
          </mxGeometry>
        </mxCell>
        <mxCell id="LIPTSqcopBgNWa-e8DmY-10" value="gère" style="edgeLabel;html=1;align=center;verticalAlign=middle;resizable=0;points=[];" parent="1" vertex="1" connectable="0">
          <mxGeometry x="528.1343895555297" y="129.99637750591216" as="geometry">
            <mxPoint x="-15" y="-1" as="offset" />
          </mxGeometry>
        </mxCell>
        <mxCell id="LIPTSqcopBgNWa-e8DmY-11" value="appartient à" style="edgeLabel;html=1;align=center;verticalAlign=middle;resizable=0;points=[];" parent="1" vertex="1" connectable="0">
          <mxGeometry x="385.00438955552966" y="125.49637750591216" as="geometry">
            <mxPoint x="-26" y="4" as="offset" />
          </mxGeometry>
        </mxCell>
        <mxCell id="LIPTSqcopBgNWa-e8DmY-14" value="1..1" style="edgeLabel;html=1;align=center;verticalAlign=middle;resizable=0;points=[];" parent="1" vertex="1" connectable="0">
          <mxGeometry x="867.1343895555301" y="87.99637750591216" as="geometry">
            <mxPoint x="-128" y="-12" as="offset" />
          </mxGeometry>
        </mxCell>
        <mxCell id="LIPTSqcopBgNWa-e8DmY-15" value="appartient à" style="edgeLabel;html=1;align=center;verticalAlign=middle;resizable=0;points=[];" parent="1" vertex="1" connectable="0">
          <mxGeometry x="913.1343895555297" y="96.99637750591216" as="geometry">
            <mxPoint x="-15" y="-1" as="offset" />
          </mxGeometry>
        </mxCell>
        <mxCell id="LIPTSqcopBgNWa-e8DmY-16" value="gère" style="edgeLabel;html=1;align=center;verticalAlign=middle;resizable=0;points=[];" parent="1" vertex="1" connectable="0">
          <mxGeometry x="766.1343895555297" y="95.99637750591216" as="geometry">
            <mxPoint x="-26" y="4" as="offset" />
          </mxGeometry>
        </mxCell>
        <mxCell id="LIPTSqcopBgNWa-e8DmY-19" value="0..1" style="edgeLabel;html=1;align=center;verticalAlign=middle;resizable=0;points=[];" parent="1" vertex="1" connectable="0">
          <mxGeometry x="866.1343895555301" y="149.99637750591216" as="geometry">
            <mxPoint x="-128" y="-12" as="offset" />
          </mxGeometry>
        </mxCell>
        <mxCell id="LIPTSqcopBgNWa-e8DmY-20" value="est prêté à" style="edgeLabel;html=1;align=center;verticalAlign=middle;resizable=0;points=[];" parent="1" vertex="1" connectable="0">
          <mxGeometry x="915.1343895555297" y="157.99637750591216" as="geometry">
            <mxPoint x="-15" y="-1" as="offset" />
          </mxGeometry>
        </mxCell>
        <mxCell id="LIPTSqcopBgNWa-e8DmY-21" value="prête" style="edgeLabel;html=1;align=center;verticalAlign=middle;resizable=0;points=[];" parent="1" vertex="1" connectable="0">
          <mxGeometry x="768.1343895555297" y="152.99637750591216" as="geometry">
            <mxPoint x="-26" y="4" as="offset" />
          </mxGeometry>
        </mxCell>
        <mxCell id="LIPTSqcopBgNWa-e8DmY-31" value="1..1" style="edgeLabel;html=1;align=center;verticalAlign=middle;resizable=0;points=[];" parent="1" vertex="1" connectable="0">
          <mxGeometry x="510.1286965856307" y="108.99988901889515" as="geometry" />
        </mxCell>
        <mxCell id="LIPTSqcopBgNWa-e8DmY-42" value="entraîne" style="edgeLabel;html=1;align=center;verticalAlign=middle;resizable=0;points=[];" parent="1" vertex="1" connectable="0">
          <mxGeometry x="555.9970967741934" y="798" as="geometry">
            <mxPoint x="2" y="11" as="offset" />
          </mxGeometry>
        </mxCell>
        <mxCell id="o44cOPp-4JualUAl15hT-5" value="" style="endArrow=none;html=1;rounded=0;exitX=0.312;exitY=0.02;exitDx=0;exitDy=0;exitPerimeter=0;" parent="1" source="4HMBv36Nge665kwI8IaE-1" edge="1">
          <mxGeometry width="50" height="50" relative="1" as="geometry">
            <mxPoint x="177" y="989" as="sourcePoint" />
            <mxPoint x="187" y="709" as="targetPoint" />
          </mxGeometry>
        </mxCell>
        <mxCell id="o44cOPp-4JualUAl15hT-6" value="" style="endArrow=none;dashed=1;html=1;dashPattern=1 3;strokeWidth=2;rounded=0;exitX=0.016;exitY=0.186;exitDx=0;exitDy=0;exitPerimeter=0;" parent="1" edge="1">
          <mxGeometry width="50" height="50" relative="1" as="geometry">
            <mxPoint x="345.1086399999999" y="774.836" as="sourcePoint" />
            <mxPoint x="187" y="773" as="targetPoint" />
          </mxGeometry>
        </mxCell>
        <mxCell id="o44cOPp-4JualUAl15hT-8" value="" style="endArrow=none;dashed=1;html=1;dashPattern=1 3;strokeWidth=2;rounded=0;entryX=1.002;entryY=1.579;entryDx=0;entryDy=0;entryPerimeter=0;" parent="1" target="Liz70xh0E30Ar9lDT0JQ-72" edge="1">
          <mxGeometry width="50" height="50" relative="1" as="geometry">
            <mxPoint x="186" y="849" as="sourcePoint" />
            <mxPoint x="327" y="735" as="targetPoint" />
          </mxGeometry>
        </mxCell>
        <mxCell id="o44cOPp-4JualUAl15hT-15" value="1..1" style="edgeLabel;html=1;align=center;verticalAlign=middle;resizable=0;points=[];" parent="1" vertex="1" connectable="0">
          <mxGeometry x="-423.0007142857138" y="750.9999999999999" as="geometry" />
        </mxCell>
        <mxCell id="o44cOPp-4JualUAl15hT-16" value="0..n" style="edgeLabel;html=1;align=center;verticalAlign=middle;resizable=0;points=[];" parent="1" vertex="1" connectable="0">
          <mxGeometry x="-450.0007142857138" y="844.9999999999999" as="geometry" />
        </mxCell>
        <mxCell id="o44cOPp-4JualUAl15hT-29" style="edgeStyle=orthogonalEdgeStyle;rounded=0;orthogonalLoop=1;jettySize=auto;html=1;endArrow=none;startFill=0;entryX=0;entryY=0.5;entryDx=0;entryDy=0;exitX=0;exitY=0.5;exitDx=0;exitDy=0;" parent="1" source="Liz70xh0E30Ar9lDT0JQ-90" target="Liz70xh0E30Ar9lDT0JQ-55" edge="1">
          <mxGeometry relative="1" as="geometry">
            <mxPoint x="-1082" y="759" as="targetPoint" />
            <mxPoint x="-1153" y="414" as="sourcePoint" />
            <Array as="points">
              <mxPoint x="-1043" y="400" />
              <mxPoint x="-1123" y="400" />
              <mxPoint x="-1123" y="734" />
            </Array>
          </mxGeometry>
        </mxCell>
        <mxCell id="o44cOPp-4JualUAl15hT-31" value="figure dans" style="edgeLabel;html=1;align=center;verticalAlign=middle;resizable=0;points=[];" parent="o44cOPp-4JualUAl15hT-29" vertex="1" connectable="0">
          <mxGeometry x="-0.8594" relative="1" as="geometry">
            <mxPoint x="4" y="-10" as="offset" />
          </mxGeometry>
        </mxCell>
        <mxCell id="o44cOPp-4JualUAl15hT-32" value="inclut" style="edgeLabel;html=1;align=center;verticalAlign=middle;resizable=0;points=[];" parent="1" vertex="1" connectable="0">
          <mxGeometry x="-990.9963157894738" y="722" as="geometry">
            <mxPoint x="1" y="3" as="offset" />
          </mxGeometry>
        </mxCell>
        <mxCell id="o44cOPp-4JualUAl15hT-33" value="0..n" style="edgeLabel;html=1;align=center;verticalAlign=middle;resizable=0;points=[];" parent="1" vertex="1" connectable="0">
          <mxGeometry x="-1011" y="726" as="geometry">
            <mxPoint x="25" y="17" as="offset" />
          </mxGeometry>
        </mxCell>
        <mxCell id="o44cOPp-4JualUAl15hT-34" value="1..n" style="edgeLabel;html=1;align=center;verticalAlign=middle;resizable=0;points=[];" parent="1" vertex="1" connectable="0">
          <mxGeometry x="-1085" y="392" as="geometry">
            <mxPoint x="25" y="17" as="offset" />
          </mxGeometry>
        </mxCell>
        <mxCell id="o44cOPp-4JualUAl15hT-35" style="edgeStyle=orthogonalEdgeStyle;rounded=0;orthogonalLoop=1;jettySize=auto;html=1;exitX=0;exitY=0.5;exitDx=0;exitDy=0;entryX=1;entryY=0.5;entryDx=0;entryDy=0;endArrow=none;startFill=0;" parent="1" source="BcY6Sn8Lkc4OsGFnqYsF-4" edge="1">
          <mxGeometry relative="1" as="geometry">
            <Array as="points">
              <mxPoint x="734" y="872" />
              <mxPoint x="536" y="872" />
            </Array>
            <mxPoint x="536.29" y="783" as="targetPoint" />
          </mxGeometry>
        </mxCell>
        <mxCell id="o44cOPp-4JualUAl15hT-36" value="prend en charge" style="edgeLabel;html=1;align=center;verticalAlign=middle;resizable=0;points=[];" parent="o44cOPp-4JualUAl15hT-35" vertex="1" connectable="0">
          <mxGeometry x="0.8103" relative="1" as="geometry">
            <mxPoint x="145" y="-11" as="offset" />
          </mxGeometry>
        </mxCell>
        <mxCell id="o44cOPp-4JualUAl15hT-37" value="nécessite" style="edgeLabel;html=1;align=center;verticalAlign=middle;resizable=0;points=[];" parent="1" vertex="1" connectable="0">
          <mxGeometry x="569.000158729259" y="858.0000000000002" as="geometry">
            <mxPoint x="-6" y="4" as="offset" />
          </mxGeometry>
        </mxCell>
        <mxCell id="o44cOPp-4JualUAl15hT-38" value="1..n" style="edgeLabel;html=1;align=center;verticalAlign=middle;resizable=0;points=[];" parent="1" vertex="1" connectable="0">
          <mxGeometry x="556.000158729259" y="878.0000000000002" as="geometry">
            <mxPoint x="-6" y="4" as="offset" />
          </mxGeometry>
        </mxCell>
        <mxCell id="o44cOPp-4JualUAl15hT-39" value="1..n" style="edgeLabel;html=1;align=center;verticalAlign=middle;resizable=0;points=[];" parent="1" vertex="1" connectable="0">
          <mxGeometry x="727.000158729259" y="878.0000000000002" as="geometry">
            <mxPoint x="-6" y="4" as="offset" />
          </mxGeometry>
        </mxCell>
        <mxCell id="o44cOPp-4JualUAl15hT-40" value="Locaux" style="swimlane;fontStyle=1;align=center;verticalAlign=top;childLayout=stackLayout;horizontal=1;startSize=26;horizontalStack=0;resizeParent=1;resizeLast=0;collapsible=1;marginBottom=0;rounded=0;shadow=0;strokeWidth=1;" parent="1" vertex="1">
          <mxGeometry x="134.85000000000002" y="39" width="194.29" height="160" as="geometry">
            <mxRectangle x="550" y="140" width="160" height="26" as="alternateBounds" />
          </mxGeometry>
        </mxCell>
        <mxCell id="o44cOPp-4JualUAl15hT-41" value="id_locaux: int" style="text;align=left;verticalAlign=top;spacingLeft=4;spacingRight=4;overflow=hidden;rotatable=0;points=[[0,0.5],[1,0.5]];portConstraint=eastwest;rounded=0;shadow=0;html=0;fontStyle=4" parent="o44cOPp-4JualUAl15hT-40" vertex="1">
          <mxGeometry y="26" width="194.29" height="18" as="geometry" />
        </mxCell>
        <mxCell id="o44cOPp-4JualUAl15hT-42" value="localisation: String" style="text;align=left;verticalAlign=top;spacingLeft=4;spacingRight=4;overflow=hidden;rotatable=0;points=[[0,0.5],[1,0.5]];portConstraint=eastwest;rounded=0;shadow=0;html=0;" parent="o44cOPp-4JualUAl15hT-40" vertex="1">
          <mxGeometry y="44" width="194.29" height="26" as="geometry" />
        </mxCell>
        <mxCell id="o44cOPp-4JualUAl15hT-46" value="fonctions: String" style="text;align=left;verticalAlign=top;spacingLeft=4;spacingRight=4;overflow=hidden;rotatable=0;points=[[0,0.5],[1,0.5]];portConstraint=eastwest;rounded=0;shadow=0;html=0;" parent="o44cOPp-4JualUAl15hT-40" vertex="1">
          <mxGeometry y="70" width="194.29" height="26" as="geometry" />
        </mxCell>
        <mxCell id="o44cOPp-4JualUAl15hT-47" value="" style="html=1;verticalAlign=bottom;endArrow=block;curved=0;rounded=0;exitX=0.5;exitY=0;exitDx=0;exitDy=0;endFill=0;strokeWidth=1;jumpSize=10;fontSize=10;endSize=14;entryX=0.25;entryY=1;entryDx=0;entryDy=0;" parent="1" source="Liz70xh0E30Ar9lDT0JQ-15" target="o44cOPp-4JualUAl15hT-40" edge="1">
          <mxGeometry width="80" relative="1" as="geometry">
            <mxPoint x="702" y="270" as="sourcePoint" />
            <mxPoint x="582" y="180" as="targetPoint" />
          </mxGeometry>
        </mxCell>
        <mxCell id="o44cOPp-4JualUAl15hT-48" value="" style="html=1;verticalAlign=bottom;endArrow=block;curved=0;rounded=0;endFill=0;strokeWidth=1;jumpSize=10;fontSize=10;endSize=14;exitX=0.5;exitY=0;exitDx=0;exitDy=0;" parent="1" source="o44cOPp-4JualUAl15hT-49" edge="1">
          <mxGeometry width="80" relative="1" as="geometry">
            <mxPoint x="787" y="250" as="sourcePoint" />
            <mxPoint x="257" y="199" as="targetPoint" />
          </mxGeometry>
        </mxCell>
        <mxCell id="o44cOPp-4JualUAl15hT-49" value="Stockage" style="swimlane;fontStyle=1;align=center;verticalAlign=top;childLayout=stackLayout;horizontal=1;startSize=26;horizontalStack=0;resizeParent=1;resizeLast=0;collapsible=1;marginBottom=0;rounded=0;shadow=0;strokeWidth=1;" parent="1" vertex="1">
          <mxGeometry x="539.56" y="244.01" width="194.29" height="90" as="geometry">
            <mxRectangle x="550" y="140" width="160" height="26" as="alternateBounds" />
          </mxGeometry>
        </mxCell>
        <mxCell id="o44cOPp-4JualUAl15hT-52" value="description: TEXT/CLOB" style="text;align=left;verticalAlign=top;spacingLeft=4;spacingRight=4;overflow=hidden;rotatable=0;points=[[0,0.5],[1,0.5]];portConstraint=eastwest;rounded=0;shadow=0;html=0;" parent="o44cOPp-4JualUAl15hT-49" vertex="1">
          <mxGeometry y="26" width="194.29" height="26" as="geometry" />
        </mxCell>
        <mxCell id="o44cOPp-4JualUAl15hT-58" value="émane de" style="edgeLabel;html=1;align=center;verticalAlign=middle;resizable=0;points=[];" parent="1" vertex="1" connectable="0">
          <mxGeometry x="-743.9983017315278" y="758" as="geometry">
            <mxPoint x="-6" y="1" as="offset" />
          </mxGeometry>
        </mxCell>
        <mxCell id="o44cOPp-4JualUAl15hT-60" value="1..1" style="edgeLabel;html=1;align=center;verticalAlign=middle;resizable=0;points=[];" parent="1" vertex="1" connectable="0">
          <mxGeometry x="-763.0010603522172" y="751" as="geometry">
            <mxPoint x="108" y="-18" as="offset" />
          </mxGeometry>
        </mxCell>
        <mxCell id="LIPTSqcopBgNWa-e8DmY-30" style="edgeStyle=orthogonalEdgeStyle;rounded=0;orthogonalLoop=1;jettySize=auto;html=1;endArrow=diamond;startFill=0;endFill=1;exitX=1;exitY=0.5;exitDx=0;exitDy=0;entryX=0;entryY=0.5;entryDx=0;entryDy=0;endSize=11;" parent="1" source="o44cOPp-4JualUAl15hT-46" edge="1">
          <mxGeometry relative="1" as="geometry">
            <Array as="points">
              <mxPoint x="329" y="118" />
            </Array>
            <mxPoint x="530.0500000000002" y="118.00000000000023" as="targetPoint" />
          </mxGeometry>
        </mxCell>
        <mxCell id="o44cOPp-4JualUAl15hT-61" style="edgeStyle=orthogonalEdgeStyle;rounded=0;orthogonalLoop=1;jettySize=auto;html=1;exitX=0;exitY=0.5;exitDx=0;exitDy=0;endArrow=none;endFill=0;endSize=9;startFill=0;" parent="1" source="Liz70xh0E30Ar9lDT0JQ-34" edge="1">
          <mxGeometry relative="1" as="geometry">
            <mxPoint x="725" y="89" as="targetPoint" />
            <Array as="points">
              <mxPoint x="725" y="89" />
            </Array>
          </mxGeometry>
        </mxCell>
        <mxCell id="o44cOPp-4JualUAl15hT-62" value="1..n" style="edgeLabel;html=1;align=center;verticalAlign=middle;resizable=0;points=[];" parent="1" vertex="1" connectable="0">
          <mxGeometry x="1045.00438955553" y="90.99637750591216" as="geometry">
            <mxPoint x="-128" y="-12" as="offset" />
          </mxGeometry>
        </mxCell>
        <mxCell id="o44cOPp-4JualUAl15hT-63" style="edgeStyle=orthogonalEdgeStyle;rounded=0;orthogonalLoop=1;jettySize=auto;html=1;endArrow=diamond;endFill=0;endSize=9;exitX=-0.004;exitY=0.784;exitDx=0;exitDy=0;exitPerimeter=0;" parent="1" edge="1">
          <mxGeometry relative="1" as="geometry">
            <mxPoint x="930.3528399999996" y="149.3839999999998" as="sourcePoint" />
            <mxPoint x="725" y="149" as="targetPoint" />
            <Array as="points">
              <mxPoint x="925" y="149" />
            </Array>
          </mxGeometry>
        </mxCell>
        <mxCell id="o44cOPp-4JualUAl15hT-65" value="0..n" style="edgeLabel;html=1;align=center;verticalAlign=middle;resizable=0;points=[];" parent="1" vertex="1" connectable="0">
          <mxGeometry x="1044.00438955553" y="150.99637750591216" as="geometry">
            <mxPoint x="-128" y="-12" as="offset" />
          </mxGeometry>
        </mxCell>
        <mxCell id="7o93KteqJOj9gGcoL91B-1" style="edgeStyle=orthogonalEdgeStyle;rounded=0;orthogonalLoop=1;jettySize=auto;html=1;endArrow=none;startFill=0;startArrow=none;entryX=0.001;entryY=0.458;entryDx=0;entryDy=0;entryPerimeter=0;" parent="1" edge="1">
          <mxGeometry relative="1" as="geometry">
            <Array as="points">
              <mxPoint x="-439" y="650" />
              <mxPoint x="77" y="650" />
            </Array>
            <mxPoint x="-438.71" y="671" as="sourcePoint" />
            <mxPoint x="77.23999999999978" y="644.9080000000001" as="targetPoint" />
          </mxGeometry>
        </mxCell>
        <mxCell id="7o93KteqJOj9gGcoL91B-2" value="1..n" style="edgeLabel;html=1;align=center;verticalAlign=middle;resizable=0;points=[];" parent="7o93KteqJOj9gGcoL91B-1" vertex="1" connectable="0">
          <mxGeometry x="-0.9504" y="9" relative="1" as="geometry">
            <mxPoint x="21" y="-17" as="offset" />
          </mxGeometry>
        </mxCell>
        <mxCell id="7o93KteqJOj9gGcoL91B-3" value="1..1" style="edgeLabel;html=1;align=center;verticalAlign=middle;resizable=0;points=[];" parent="7o93KteqJOj9gGcoL91B-1" vertex="1" connectable="0">
          <mxGeometry x="0.9198" y="4" relative="1" as="geometry">
            <mxPoint x="3" y="-6" as="offset" />
          </mxGeometry>
        </mxCell>
        <mxCell id="7o93KteqJOj9gGcoL91B-4" value="peut avoir" style="edgeLabel;html=1;align=center;verticalAlign=middle;resizable=0;points=[];" parent="1" vertex="1" connectable="0">
          <mxGeometry x="44.99709677419338" y="660" as="geometry">
            <mxPoint x="3" as="offset" />
          </mxGeometry>
        </mxCell>
        <mxCell id="7o93KteqJOj9gGcoL91B-5" value="concerne " style="edgeLabel;html=1;align=center;verticalAlign=middle;resizable=0;points=[];" parent="1" vertex="1" connectable="0">
          <mxGeometry x="-417.0029032258066" y="660" as="geometry">
            <mxPoint x="3" as="offset" />
          </mxGeometry>
        </mxCell>
        <mxCell id="7o93KteqJOj9gGcoL91B-7" value="Antécédents" style="swimlane;fontStyle=1;align=center;verticalAlign=top;childLayout=stackLayout;horizontal=1;startSize=26;horizontalStack=0;resizeParent=1;resizeLast=0;collapsible=1;marginBottom=0;rounded=0;shadow=0;strokeWidth=1;" parent="1" vertex="1">
          <mxGeometry x="-784" y="284" width="194.29" height="106" as="geometry">
            <mxRectangle x="550" y="140" width="160" height="26" as="alternateBounds" />
          </mxGeometry>
        </mxCell>
        <mxCell id="7o93KteqJOj9gGcoL91B-8" value="id_antécédents: int" style="text;align=left;verticalAlign=top;spacingLeft=4;spacingRight=4;overflow=hidden;rotatable=0;points=[[0,0.5],[1,0.5]];portConstraint=eastwest;rounded=0;shadow=0;html=0;fontStyle=4;fontFamily=Helvetica;fontSize=12;fontColor=default;" parent="7o93KteqJOj9gGcoL91B-7" vertex="1">
          <mxGeometry y="26" width="194.29" height="24" as="geometry" />
        </mxCell>
        <mxCell id="7o93KteqJOj9gGcoL91B-10" value="description: TEXT/CLOB" style="text;align=left;verticalAlign=top;spacingLeft=4;spacingRight=4;overflow=hidden;rotatable=0;points=[[0,0.5],[1,0.5]];portConstraint=eastwest;rounded=0;shadow=0;html=0;" parent="7o93KteqJOj9gGcoL91B-7" vertex="1">
          <mxGeometry y="50" width="194.29" height="26" as="geometry" />
        </mxCell>
        <mxCell id="7o93KteqJOj9gGcoL91B-16" value="0..n" style="edgeLabel;html=1;align=center;verticalAlign=middle;resizable=0;points=[];" parent="1" vertex="1" connectable="0">
          <mxGeometry x="-447.7056104444699" y="324.00637750591216" as="geometry">
            <mxPoint x="-128" y="-12" as="offset" />
          </mxGeometry>
        </mxCell>
        <mxCell id="7o93KteqJOj9gGcoL91B-17" value="est associé à" style="edgeLabel;html=1;align=center;verticalAlign=middle;resizable=0;points=[];" parent="1" vertex="1" connectable="0">
          <mxGeometry x="-345.7056104444704" y="334.00637750591216" as="geometry">
            <mxPoint x="-11" y="-3" as="offset" />
          </mxGeometry>
        </mxCell>
        <mxCell id="7o93KteqJOj9gGcoL91B-18" value="est inclus dans" style="edgeLabel;html=1;align=center;verticalAlign=middle;resizable=0;points=[];" parent="1" vertex="1" connectable="0">
          <mxGeometry x="-551.7056104444704" y="331.00637750591216" as="geometry" />
        </mxCell>
        <mxCell id="7o93KteqJOj9gGcoL91B-21" value="Contact" style="swimlane;fontStyle=1;align=center;verticalAlign=top;childLayout=stackLayout;horizontal=1;startSize=26;horizontalStack=0;resizeParent=1;resizeLast=0;collapsible=1;marginBottom=0;rounded=0;shadow=0;strokeWidth=1;" parent="1" vertex="1">
          <mxGeometry x="-317.29" y="414" width="194.29" height="202" as="geometry">
            <mxRectangle x="550" y="140" width="160" height="26" as="alternateBounds" />
          </mxGeometry>
        </mxCell>
        <mxCell id="7o93KteqJOj9gGcoL91B-22" value="id_contact: int" style="text;align=left;verticalAlign=top;spacingLeft=4;spacingRight=4;overflow=hidden;rotatable=0;points=[[0,0.5],[1,0.5]];portConstraint=eastwest;rounded=0;shadow=0;html=0;fontStyle=4;fontFamily=Helvetica;fontSize=12;fontColor=default;" parent="7o93KteqJOj9gGcoL91B-21" vertex="1">
          <mxGeometry y="26" width="194.29" height="24" as="geometry" />
        </mxCell>
        <mxCell id="7o93KteqJOj9gGcoL91B-32" value="adresse: String" style="text;align=left;verticalAlign=top;spacingLeft=4;spacingRight=4;overflow=hidden;rotatable=0;points=[[0,0.5],[1,0.5]];portConstraint=eastwest;rounded=0;shadow=0;html=0;fontStyle=0;fontFamily=Helvetica;fontSize=12;fontColor=default;" parent="7o93KteqJOj9gGcoL91B-21" vertex="1">
          <mxGeometry y="50" width="194.29" height="24" as="geometry" />
        </mxCell>
        <mxCell id="7o93KteqJOj9gGcoL91B-33" value="téléphone: String" style="text;align=left;verticalAlign=top;spacingLeft=4;spacingRight=4;overflow=hidden;rotatable=0;points=[[0,0.5],[1,0.5]];portConstraint=eastwest;rounded=0;shadow=0;html=0;fontStyle=0;fontFamily=Helvetica;fontSize=12;fontColor=default;" parent="7o93KteqJOj9gGcoL91B-21" vertex="1">
          <mxGeometry y="74" width="194.29" height="24" as="geometry" />
        </mxCell>
        <mxCell id="7o93KteqJOj9gGcoL91B-34" value="num_assurance: String" style="text;align=left;verticalAlign=top;spacingLeft=4;spacingRight=4;overflow=hidden;rotatable=0;points=[[0,0.5],[1,0.5]];portConstraint=eastwest;rounded=0;shadow=0;html=0;fontStyle=0;fontFamily=Helvetica;fontSize=12;fontColor=default;" parent="7o93KteqJOj9gGcoL91B-21" vertex="1">
          <mxGeometry y="98" width="194.29" height="24" as="geometry" />
        </mxCell>
        <mxCell id="7o93KteqJOj9gGcoL91B-26" value="1..n" style="edgeLabel;html=1;align=center;verticalAlign=middle;resizable=0;points=[];" parent="1" vertex="1" connectable="0">
          <mxGeometry x="18.004389555530125" y="494.99637750591216" as="geometry">
            <mxPoint x="-128" y="-12" as="offset" />
          </mxGeometry>
        </mxCell>
        <mxCell id="7o93KteqJOj9gGcoL91B-27" value="est joignable par" style="edgeLabel;html=1;align=center;verticalAlign=middle;resizable=0;points=[];" parent="1" vertex="1" connectable="0">
          <mxGeometry x="44.004389555529684" y="507.99637750591216" as="geometry">
            <mxPoint x="-11" y="-3" as="offset" />
          </mxGeometry>
        </mxCell>
        <mxCell id="7o93KteqJOj9gGcoL91B-28" value="réfère à" style="edgeLabel;html=1;align=center;verticalAlign=middle;resizable=0;points=[];" parent="1" vertex="1" connectable="0">
          <mxGeometry x="-105.99561044447032" y="505.99637750591216" as="geometry">
            <mxPoint x="4" y="-1" as="offset" />
          </mxGeometry>
        </mxCell>
        <mxCell id="_ER0I4ydUNnLppPdNXpL-4" style="edgeStyle=orthogonalEdgeStyle;rounded=0;orthogonalLoop=1;jettySize=auto;html=1;endArrow=diamond;endFill=1;endSize=17;" parent="1" edge="1">
          <mxGeometry relative="1" as="geometry">
            <Array as="points">
              <mxPoint x="-123" y="490" />
              <mxPoint x="-123" y="490" />
              <mxPoint x="-123" y="491" />
            </Array>
            <mxPoint x="77" y="491.25" as="targetPoint" />
            <mxPoint x="-123" y="490" as="sourcePoint" />
          </mxGeometry>
        </mxCell>
        <mxCell id="_ER0I4ydUNnLppPdNXpL-7" value="1..1" style="edgeLabel;html=1;align=center;verticalAlign=middle;resizable=0;points=[];" parent="1" vertex="1" connectable="0">
          <mxGeometry x="177.0043895555301" y="492.24637750591216" as="geometry">
            <mxPoint x="-128" y="-12" as="offset" />
          </mxGeometry>
        </mxCell>
        <mxCell id="qItokQ1toajGmqyx5oMd-1" style="edgeStyle=orthogonalEdgeStyle;rounded=0;orthogonalLoop=1;jettySize=auto;html=1;endArrow=diamond;endFill=0;endSize=9;exitX=1;exitY=0.5;exitDx=0;exitDy=0;" parent="1" edge="1">
          <mxGeometry relative="1" as="geometry">
            <mxPoint x="-589.71" y="311" as="sourcePoint" />
            <mxPoint x="-317.28999999999996" y="322" as="targetPoint" />
            <Array as="points">
              <mxPoint x="-590" y="322" />
            </Array>
          </mxGeometry>
        </mxCell>
        <mxCell id="qItokQ1toajGmqyx5oMd-2" value="1..1" style="edgeLabel;html=1;align=center;verticalAlign=middle;resizable=0;points=[];" parent="1" vertex="1" connectable="0">
          <mxGeometry x="-337.4159564069205" y="310.0005694625049" as="geometry" />
        </mxCell>
        <mxCell id="rXW6S8lit_6Dd6Ylpq4T-8" value="Assurance" style="swimlane;fontStyle=1;align=center;verticalAlign=top;childLayout=stackLayout;horizontal=1;startSize=26;horizontalStack=0;resizeParent=1;resizeLast=0;collapsible=1;marginBottom=0;rounded=0;shadow=0;strokeWidth=1;" parent="1" vertex="1">
          <mxGeometry x="-682" y="13" width="194.29" height="135.5" as="geometry">
            <mxRectangle x="550" y="140" width="160" height="26" as="alternateBounds" />
          </mxGeometry>
        </mxCell>
        <mxCell id="rXW6S8lit_6Dd6Ylpq4T-9" value="id_assurance: int" style="text;align=left;verticalAlign=top;spacingLeft=4;spacingRight=4;overflow=hidden;rotatable=0;points=[[0,0.5],[1,0.5]];portConstraint=eastwest;rounded=0;shadow=0;html=0;fontStyle=4" parent="rXW6S8lit_6Dd6Ylpq4T-8" vertex="1">
          <mxGeometry y="26" width="194.29" height="18" as="geometry" />
        </mxCell>
        <mxCell id="rXW6S8lit_6Dd6Ylpq4T-10" value="montant: float" style="text;align=left;verticalAlign=top;spacingLeft=4;spacingRight=4;overflow=hidden;rotatable=0;points=[[0,0.5],[1,0.5]];portConstraint=eastwest;rounded=0;shadow=0;html=0;" parent="rXW6S8lit_6Dd6Ylpq4T-8" vertex="1">
          <mxGeometry y="44" width="194.29" height="26" as="geometry" />
        </mxCell>
        <mxCell id="rXW6S8lit_6Dd6Ylpq4T-11" value="date: DateTime" style="text;align=left;verticalAlign=top;spacingLeft=4;spacingRight=4;overflow=hidden;rotatable=0;points=[[0,0.5],[1,0.5]];portConstraint=eastwest;rounded=0;shadow=0;html=0;" parent="rXW6S8lit_6Dd6Ylpq4T-8" vertex="1">
          <mxGeometry y="70" width="194.29" height="26" as="geometry" />
        </mxCell>
        <mxCell id="rXW6S8lit_6Dd6Ylpq4T-13" value="1..1" style="edgeLabel;html=1;align=center;verticalAlign=middle;resizable=0;points=[];" parent="1" vertex="1" connectable="0">
          <mxGeometry x="-180.0033551679535" y="41" as="geometry">
            <mxPoint x="-44" y="19" as="offset" />
          </mxGeometry>
        </mxCell>
        <mxCell id="rXW6S8lit_6Dd6Ylpq4T-15" value="est émise pour" style="edgeLabel;html=1;align=center;verticalAlign=middle;resizable=0;points=[];" parent="1" vertex="1" connectable="0">
          <mxGeometry x="-510.0029032258067" y="91" as="geometry">
            <mxPoint x="68" y="-5" as="offset" />
          </mxGeometry>
        </mxCell>
        <mxCell id="Dy6sulia5sB4zMmT42ZR-1" value="reçoit" style="edgeLabel;html=1;align=center;verticalAlign=middle;resizable=0;points=[];" parent="1" vertex="1" connectable="0">
          <mxGeometry x="-300.00000000000006" y="91" as="geometry">
            <mxPoint x="68" y="-5" as="offset" />
          </mxGeometry>
        </mxCell>
        <mxCell id="Dy6sulia5sB4zMmT42ZR-2" value="1..n" style="edgeLabel;html=1;align=center;verticalAlign=middle;resizable=0;points=[];" parent="1" vertex="1" connectable="0">
          <mxGeometry x="-470" y="60" as="geometry">
            <mxPoint x="-1" y="1" as="offset" />
          </mxGeometry>
        </mxCell>
        <mxCell id="3pAJSO3fIvJ6FdaWoJwJ-5" value="" style="endArrow=none;html=1;rounded=0;" parent="1" edge="1">
          <mxGeometry width="50" height="50" relative="1" as="geometry">
            <mxPoint x="-210" y="76" as="sourcePoint" />
            <mxPoint x="-490" y="76" as="targetPoint" />
          </mxGeometry>
        </mxCell>
        <mxCell id="3pAJSO3fIvJ6FdaWoJwJ-6" value="" style="endArrow=none;html=1;rounded=0;entryX=0.5;entryY=0;entryDx=0;entryDy=0;exitX=1;exitY=0.5;exitDx=0;exitDy=0;" parent="1" source="Liz70xh0E30Ar9lDT0JQ-82" target="fSSnkKhONHnSPeiWQdq9-19" edge="1">
          <mxGeometry width="50" height="50" relative="1" as="geometry">
            <mxPoint x="-70" y="270" as="sourcePoint" />
            <mxPoint x="-20" y="220" as="targetPoint" />
          </mxGeometry>
        </mxCell>
        <mxCell id="3pAJSO3fIvJ6FdaWoJwJ-9" value="1..n" style="edgeLabel;html=1;align=center;verticalAlign=middle;resizable=0;points=[];" parent="1" vertex="1" connectable="0">
          <mxGeometry y="109" as="geometry">
            <mxPoint x="3" y="-8" as="offset" />
          </mxGeometry>
        </mxCell>
        <mxCell id="3pAJSO3fIvJ6FdaWoJwJ-12" value="1..1" style="edgeLabel;html=1;align=center;verticalAlign=middle;resizable=0;points=[];" parent="1" vertex="1" connectable="0">
          <mxGeometry x="206" y="288" as="geometry">
            <mxPoint x="-3" y="-5" as="offset" />
          </mxGeometry>
        </mxCell>
        <mxCell id="3pAJSO3fIvJ6FdaWoJwJ-13" value="recoit" style="edgeLabel;html=1;align=center;verticalAlign=middle;resizable=0;points=[];" parent="1" vertex="1" connectable="0">
          <mxGeometry y="130" as="geometry">
            <mxPoint x="4" y="2" as="offset" />
          </mxGeometry>
        </mxCell>
        <mxCell id="3pAJSO3fIvJ6FdaWoJwJ-15" value="&lt;font style=&quot;font-size: 10px;&quot;&gt;appartient à&lt;/font&gt;" style="text;html=1;align=center;verticalAlign=middle;resizable=0;points=[];autosize=1;strokeColor=none;fillColor=none;" parent="1" vertex="1">
          <mxGeometry x="110" y="264" width="80" height="30" as="geometry" />
        </mxCell>
      </root>
    </mxGraphModel>
  </diagram>
</mxfile>
